<svg enable-background="new -285 408.9 24 24" viewBox="-285 408.9 24 24" xmlns="http://www.w3.org/2000/svg"><path d="m-570 817.8h24v24h-24z" fill="none"/><path d="m-266.6 417.1h-1.7c-.4-.7-1-1.4-1.7-1.8l.9-.9c.4-.4.4-1 0-1.3-.4-.4-1-.4-1.3 0l-1.4 1.4c-.4-.1-.9-.2-1.3-.2s-.9.1-1.3.2l-1.4-1.4c-.4-.4-1-.4-1.3 0-.4.4-.4 1 0 1.3l.9.9c-.7.5-1.3 1.1-1.7 1.8h-1.7c-.5 0-.9.4-.9.9s.4.9.9.9h1c0 .3-.1.6-.1.9v.9h-.9c-.5 0-.9.4-.9.9s.4.9.9.9h.9v.9c0 .3 0 .6.1.9h-1c-.5 0-.9.4-.9.9s.4.9.9.9h1.7c1 1.7 2.8 2.8 4.9 2.8s3.9-1.1 4.9-2.8h1.7c.5 0 .9-.4.9-.9s-.4-.9-.9-.9h-1c0-.3.1-.6.1-.9v-.9h.9c.5 0 .9-.4.9-.9s-.4-.9-.9-.9h-.9v-.9c0-.3 0-.6-.1-.9h1c.5 0 .9-.4.9-.9s-.6-.9-1.1-.9zm-5.7 7.5h-1.9c-.5 0-.9-.4-.9-.9s.4-.9.9-.9h1.9c.5 0 .9.4.9.9s-.3.9-.9.9zm0-3.7h-1.9c-.5 0-.9-.4-.9-.9s.4-.9.9-.9h1.9c.5 0 .9.4.9.9s-.3.9-.9.9z" fill="#333"/></svg>