<?xml version="1.0" encoding="utf-8"?>
<!-- Generator: Adobe Illustrator 21.0.2, SVG Export Plug-In . SVG Version: 6.00 Build 0)  -->
<svg version="1.1" baseProfile="basic" id="Layer_2"
	 xmlns="http://www.w3.org/2000/svg" xmlns:xlink="http://www.w3.org/1999/xlink" x="0px" y="0px" viewBox="0 0 668 235.9"
	 xml:space="preserve">
<title>Logo Ellipsis Earth Intelligence New</title>
<g id="_Group_">
	<path id="_Path_" fill="#FFFFFF" d="M259.5,169.2c-0.5-0.6-0.8-1.3-0.9-2.1V49.9h-15V167c0,6,0,18.4,12.4,18.4h21.8v-15h-14.5
		C261.9,170.5,260.5,170.1,259.5,169.2z"/>
	<path id="_Path_2" fill="#FFFFFF" d="M210.7,169.2c-0.5-0.6-0.8-1.3-0.9-2.1V49.9h-15V167c0,6,0,18.4,12.4,18.4H229v-15h-14.5
		C213.1,170.5,211.7,170.1,210.7,169.2z"/>
	<rect id="_Path_3" x="292" y="49.9" fill="#FFFFFF" width="15" height="135.4"/>
	<rect id="_Path_4" x="516.8" y="49.9" fill="#FFFFFF" width="15" height="135.4"/>
	<path id="_Compound_Path_" fill="#FFFFFF" d="M367.2,50.2H332v135.1h15v-58h20.2c17.3,0,30.7-4.6,39.7-13.6
		c6.6-6.7,10.5-15.6,11-25C417.9,88.4,417.3,50.2,367.2,50.2z M347,65.2h20.2c35,0,35.7,22.7,35.7,23.5c-0.5,5.4-2.8,10.5-6.6,14.4
		c-6.1,6.1-15.9,9.2-29.1,9.2H347V65.2z"/>
	<path id="_Path_5" fill="#FFFFFF" d="M462.6,50.4c-20.4,0-35.2,12.9-35.2,30.7c0,16.7,1.5,27.7,31.7,43.4
		c23.6,12.3,23.6,17.9,23.6,30.1c0,9.2-8.3,15.7-20.2,15.7c-19,0-20.1-13.1-20.2-15.7v-2.5h-15v2.5c0,10.6,7.4,30.7,35.2,30.7
		c20.4,0,35.2-12.9,35.2-30.7c0-16.7-1.5-27.7-31.7-43.4c-23.6-12.3-23.6-17.8-23.6-30.1c0-9.2,8.3-15.7,20.2-15.7
		c19,0,20.1,13.1,20.2,15.7v2.5h15v-2.5C497.8,70.5,490.4,50.4,462.6,50.4z"/>
	<path id="_Path_6" fill="#FFFFFF" d="M589,65.4c19,0,20.2,13.1,20.2,15.7v2.5h15v-2.5c0-10.6-7.3-30.7-35.2-30.7
		c-20.4,0-35.2,12.9-35.2,30.7c0,16.7,1.5,27.7,31.7,43.4c23.6,12.3,23.6,17.9,23.6,30.1c0,9.2-8.3,15.7-20.2,15.7
		c-19,0-20.1-13.1-20.2-15.7v-2.5h-15v2.5c0,10.6,7.3,30.7,35.2,30.7c20.4,0,35.2-12.9,35.2-30.7c0-16.7-1.5-27.7-31.7-43.4
		c-23.6-12.3-23.6-17.8-23.6-30.1C568.8,71.9,577.1,65.4,589,65.4z"/>
	<g id="_Group_2">
		<path id="_Path_7" fill="#FFFFFF" d="M112,170.5c-26.2,0-48.4-19.3-52.2-45.2H112v-15H59.8c4.1-28.8,30.9-48.8,59.7-44.7
			c8.7,1.3,17,4.7,24.1,10l11-11c-29.3-23.5-72.2-18.8-95.7,10.5c-8.1,10.1-13.2,22.3-14.6,35.2c-0.6,5-0.6,10,0,15
			c4.1,37.4,37.8,64.4,75.2,60.2c12.8-1.4,25-6.5,35.1-14.5l-11-11C134.4,166.8,123.4,170.5,112,170.5z"/>
		<path id="_Path_8" opacity="0.2" fill="#FFFFFF" d="M164.7,117.8c0,11.3-3.6,22.4-10.4,31.5c-0.1,0.1-0.1,0.2,0,0.2l10.8,10.7
			c0.1,0.1,0.2,0.1,0.3,0c0,0,0,0,0,0c19.8-24.8,19.8-60,0-84.8c-0.1-0.1-0.2-0.1-0.3,0c0,0,0,0,0,0l-10.7,10.7
			c-0.1,0.1-0.1,0.2,0,0.2C161.1,95.4,164.7,106.5,164.7,117.8z"/>
	</g>
	<polygon fill="#FFFFFF" points="68.7,21.9 52.8,37.9 53.9,39 49.9,42.9 45.4,38.3 40.5,43.2 40.5,46.4 43.5,49.3 40.4,52.5 
		39.3,51.4 23.3,67.3 26.2,70.2 42.2,54.2 41.1,53.2 44.2,50 48.6,54.5 53.5,49.6 53.5,46.4 50.6,43.6 54.6,39.7 54.6,39.7 
		55.7,40.8 71.6,24.8 	"/>
	<g>
		
			<rect x="49.5" y="40.8" transform="matrix(0.7072 -0.707 0.707 0.7072 -13.8918 49.0303)" opacity="0.25" width="5.5" height="1"/>
		
			<rect id="_Rectangle_" x="50.9" y="29.3" transform="matrix(0.7071 -0.7071 0.7071 0.7071 -3.9372 53.1579)" opacity="0.2" width="22.6" height="4.1"/>
		<polygon id="_Path_9" opacity="0.35" points="40.5,46.4 48.6,54.5 48.6,51.3 40.5,43.2 		"/>
		<polygon id="_Path_10" opacity="0.3" points="53.5,46.4 53.5,49.6 48.6,54.5 48.6,51.3 		"/>
		<polygon opacity="0.25" points="50.3,43.3 50.3,43.2 45.4,38.3 40.5,43.2 48.6,51.3 53.5,46.4 50.3,43.2 		"/>
		<g id="_Group_3">
			
				<rect id="_Rectangle_2" x="21.4" y="58.7" transform="matrix(0.7071 -0.7071 0.7071 0.7071 -33.3993 40.95)" opacity="0.5" width="22.6" height="4.1"/>
			
				<rect x="40.1" y="50.7" transform="matrix(0.7071 -0.7071 0.7071 0.7071 -23.8589 44.8992)" opacity="0.4" width="4.4" height="1"/>
		</g>
	</g>
</g>
</svg>
