<svg viewBox="0 0 668 293" xmlns="http://www.w3.org/2000/svg"><g fill="#fff"><path d="m259.45 169.17a3.31 3.31 0 0 1 -.86-2.1v-117.16h-15v117.09c0 6 0 18.38 12.38 18.38h21.78v-15h-14.49a5.23 5.23 0 0 1 -3.81-1.21z"/><path d="m210.67 169.17a3.31 3.31 0 0 1 -.86-2.1v-117.16h-15v117.09c0 6 0 18.38 12.38 18.38h21.81v-15h-14.53a5.23 5.23 0 0 1 -3.8-1.21z"/><path d="m291.98 49.91h15v135.42h-15z"/><path d="m516.79 49.91h15v135.42h-15z"/><path d="m367.17 50.21h-35.17v135.12h15v-58h20.18c17.32 0 30.67-4.58 39.68-13.61a38.11 38.11 0 0 0 11-25c.03-.32-.55-38.51-50.69-38.51zm-20.17 15h20.16c35 0 35.71 22.66 35.72 23.55a23.24 23.24 0 0 1 -6.63 14.4c-6.09 6.11-15.87 9.2-29.06 9.2h-20.19z"/><path d="m462.58 50.43c-20.39 0-35.18 12.9-35.18 30.66 0 16.68 1.53 27.71 31.72 43.38 23.64 12.27 23.64 17.85 23.64 30.07 0 9.22-8.3 15.67-20.18 15.67-19 0-20.15-13.08-20.18-15.7v-2.46h-15v2.5c0 10.61 7.35 30.67 35.18 30.67 20.39 0 35.18-12.9 35.18-30.67 0-16.68-1.53-27.71-31.73-43.38-23.63-12.28-23.63-17.85-23.63-30.07 0-9.22 8.3-15.66 20.18-15.66 19 0 20.14 13.08 20.18 15.7v2.46h15v-2.5c0-10.61-7.35-30.67-35.18-30.67z"/><path d="m589 65.43c19 0 20.15 13.08 20.18 15.7v2.47h15v-2.5c0-10.61-7.35-30.66-35.18-30.66-20.39 0-35.18 12.9-35.18 30.66 0 16.68 1.53 27.71 31.73 43.38 23.64 12.27 23.64 17.85 23.64 30.07 0 9.22-8.3 15.67-20.18 15.67-19 0-20.14-13.08-20.18-15.7v-2.46h-15v2.5c0 10.61 7.35 30.67 35.18 30.67 20.39 0 35.18-12.9 35.18-30.67 0-16.68-1.53-27.71-31.72-43.38-23.64-12.27-23.64-17.85-23.64-30.07-.01-9.24 8.29-15.68 20.17-15.68z"/><path d="m112 170.54a52.73 52.73 0 0 1 -52.18-45.22h52.18v-15h-52.23a52.72 52.72 0 0 1 83.78-34.71l11-11a68.11 68.11 0 0 0 -110.31 45.71 67.24 67.24 0 0 0 0 15 68.11 68.11 0 0 0 110.28 45.68l-11-11a52.49 52.49 0 0 1 -31.52 10.54z"/><path d="m164.67 117.82a52.49 52.49 0 0 1 -10.42 31.46.19.19 0 0 0 0 .25l10.75 10.7a.2.2 0 0 0 .3 0 68.07 68.07 0 0 0 0-84.79.2.2 0 0 0 -.3 0l-10.72 10.66a.19.19 0 0 0 0 .25 52.49 52.49 0 0 1 10.39 31.47z" opacity=".2"/><path d="m68.74 21.89-15.97 15.98 1.09 1.09-3.93 3.93-4.57-4.55-4.88 4.87v3.15l2.99 2.98-3.11 3.11-1.09-1.09-15.97 15.98 2.89 2.89 15.97-15.98-1.09-1.09 3.11-3.11 4.4 4.4 4.89-4.89v-3.15l-2.83-2.82 3.92-3.92 1.1 1.09 15.97-15.97z"/></g><path d="m49.47 40.78h5.55v1h-5.55z" fill="#016464" opacity=".25" transform="matrix(.70723018 -.70698336 .70698336 .70723018 -13.88 49.03)"/><path d="m50.9 29.28h22.59v4.09h-22.59z" fill="#016464" opacity=".2" transform="matrix(.70710678 -.70710678 .70710678 .70710678 -3.93 53.16)"/><path d="m40.48 46.36 8.1 8.09v-3.15l-8.1-8.09z" fill="#016464" opacity=".35"/><path d="m53.47 46.41v3.15l-4.89 4.89v-3.15z" fill="#016464" opacity=".3"/><path d="m50.26 43.27.02-.03-4.92-4.9-4.88 4.87 8.1 8.09 4.89-4.89-3.19-3.17z" fill="#016464" opacity=".25"/><path d="m21.43 58.75h22.59v4.09h-22.59z" fill="#016464" opacity=".5" transform="matrix(-.70710678 .70710678 -.70710678 -.70710678 98.86 80.64)"/><path d="m40.07 50.75h4.4v1h-4.4z" fill="#016464" opacity=".4" transform="matrix(.70710678 -.70710678 .70710678 .70710678 -23.86 44.9)"/><g fill="#e6e7e8" opacity=".75"><path d="m129.62 228.92c-8.35 0-14.4 6.16-14.4 14.64s6.06 14.82 14.4 14.82a14 14 0 0 0 12.65-7.08l.07-.12-3.53-1.54-.06.09a10.33 10.33 0 0 1 -9 4.74c-5.73 0-9.68-3.49-10.36-9.11h24.09v-.11a15.79 15.79 0 0 0 .06-1.69c.01-8.76-5.54-14.64-13.92-14.64zm0 3.91c5.54 0 9.31 3.44 9.88 9h-20.06c.74-5.65 4.56-9 10.18-9z"/><path d="m173 229.52v5.06a12.77 12.77 0 0 0 -11-5.66c-8.18 0-14.34 6.32-14.34 14.71a14.88 14.88 0 0 0 4.22 10.6 14.15 14.15 0 0 0 10.12 4.16 12.71 12.71 0 0 0 11-5.72v5.12h4.09v-28.27zm0 14.22a10.5 10.5 0 0 1 -10.73 10.73 10.83 10.83 0 1 1 10.73-10.73z"/><path d="m197.45 228.92c-4.14 0-7.11 2.33-8.63 6.76v-6.16h-4.15v28.27h4.15v-10.69a23 23 0 0 1 1.84-9.7c1.48-3 3.74-4.51 6.74-4.51a9.78 9.78 0 0 1 3.73.77l.14.06.77-3.9h-.08a11.07 11.07 0 0 0 -4.51-.9z"/><path d="m213.59 218.36h-4.03v11.16h-5.1v3.55h5.1v24.72h4.03v-24.72h6.41v-3.55h-6.41z"/><path d="m237.83 228.92c-3.54 0-7.78 1.61-9.59 5.2v-20.38h-4.09v44h4.09v-15.62c.12-6.77 4.85-9.18 9.23-9.18 4.66 0 7.79 3.45 7.79 8.57v16.26h4.09v-16.43c.01-7.55-4.52-12.42-11.52-12.42z"/><path d="m275.21 216.44a2.87 2.87 0 1 0 3.13 2.88 2.95 2.95 0 0 0 -3.13-2.88z"/><path d="m273.17 229.52h4.09v28.27h-4.09z"/><path d="m298.51 228.92c-3.54 0-7.78 1.61-9.59 5.2v-4.59h-4.09v28.27h4.09v-15.68c.12-6.77 4.85-9.18 9.23-9.18 4.66 0 7.79 3.45 7.79 8.57v16.26h4.06v-16.43c0-7.55-4.49-12.42-11.49-12.42z"/><path d="m322.39 218.36h-4.03v11.16h-5.1v3.55h5.1v24.72h4.03v-24.72h6.42v-3.55h-6.42z"/><path d="m344.66 228.92c-8.35 0-14.4 6.16-14.4 14.64s6.06 14.82 14.4 14.82a14 14 0 0 0 12.65-7.08l.07-.12-3.53-1.54-.06.09a10.33 10.33 0 0 1 -9 4.74c-5.73 0-9.68-3.49-10.36-9.11h24.09v-.11a15.92 15.92 0 0 0 .06-1.69c.01-8.76-5.58-14.64-13.92-14.64zm0 3.91c5.54 0 9.31 3.44 9.88 9h-20.05c.73-5.65 4.51-9 10.17-9z"/><path d="m364.36 213.74h4.09v44.05h-4.09z"/><path d="m375.98 213.74h4.09v44.05h-4.09z"/><path d="m389.71 216.44a2.87 2.87 0 1 0 3.13 2.88 2.95 2.95 0 0 0 -3.13-2.88z"/><path d="m387.66 229.52h4.09v28.27h-4.09z"/><path d="m422.8 234.58a12.77 12.77 0 0 0 -11-5.66c-8.18 0-14.34 6.32-14.34 14.71a14.88 14.88 0 0 0 4.22 10.6 14.15 14.15 0 0 0 10.12 4.16 12.77 12.77 0 0 0 11-5.66v1c0 9.66-3.56 14.15-11.21 14.15a10.26 10.26 0 0 1 -8.77-4.92l-.06-.1-3.46 1.92.07.11a14.19 14.19 0 0 0 12.23 6.9c10.3 0 15.3-6 15.3-18.24v-24h-4.1zm0 9.16a10.5 10.5 0 0 1 -10.73 10.73 10.83 10.83 0 1 1 10.73-10.73z"/><path d="m447.18 228.92c-8.35 0-14.4 6.16-14.4 14.64s6.06 14.82 14.4 14.82a14 14 0 0 0 12.65-7.08l.07-.12-3.53-1.54-.06.09a10.33 10.33 0 0 1 -9 4.74c-5.73 0-9.68-3.49-10.36-9.11h24.05v-.11a15.92 15.92 0 0 0 .06-1.69c.05-8.76-5.55-14.64-13.88-14.64zm0 3.91c5.54 0 9.31 3.44 9.88 9h-20.06c.74-5.65 4.53-9 10.18-9z"/><path d="m480.5 228.92c-3.54 0-7.78 1.61-9.59 5.2v-4.59h-4.09v28.27h4.09v-15.68c.12-6.77 4.85-9.18 9.23-9.18 4.66 0 7.79 3.45 7.79 8.57v16.26h4.07v-16.43c0-7.55-4.5-12.42-11.5-12.42z"/><path d="m512.45 232.83a11.07 11.07 0 0 1 7.48 2.79l.09.08 2.57-2.83-.09-.08a14.85 14.85 0 0 0 -10.16-3.87 15.23 15.23 0 0 0 -10.49 4 15.1 15.1 0 0 0 0 21.42 15.23 15.23 0 0 0 10.49 4 14.61 14.61 0 0 0 10.17-3.87l.09-.09-2.6-2.77-.09.08a11.05 11.05 0 0 1 -7.48 2.73c-6.36 0-11-4.54-11-10.79s4.66-10.8 11.02-10.8z"/><path d="m539 228.92c-8.35 0-14.4 6.16-14.4 14.64s6.06 14.82 14.4 14.82a14 14 0 0 0 12.65-7.08l.07-.12-3.53-1.54-.06.09a10.33 10.33 0 0 1 -9 4.74c-5.73 0-9.68-3.49-10.36-9.11h24.09v-.11a15.79 15.79 0 0 0 .06-1.69c.08-8.76-5.55-14.64-13.92-14.64zm0 3.91c5.54 0 9.31 3.44 9.88 9h-20.02c.73-5.65 4.53-9 10.14-9z"/></g></svg>