<svg id="Layer_2" data-name="Layer 2" xmlns="http://www.w3.org/2000/svg" viewBox="0 0 668 293"><defs><style>.cls-1,.cls-2{fill:#fff;}.cls-2{opacity:0.2;}.cls-3{opacity:0.75;}.cls-4{fill:#e6e7e8;}</style></defs><title>Logo Ellipsis Earth Intelligence New</title><g id="_Group_" data-name="&lt;Group&gt;"><path id="_Path_" data-name="&lt;Path&gt;" class="cls-1" d="M259.45,169.17a3.31,3.31,0,0,1-.86-2.1V49.91h-15V167c0,6,0,18.38,12.38,18.38h21.78v-15H263.26A5.23,5.23,0,0,1,259.45,169.17Z"/><path id="_Path_2" data-name="&lt;Path&gt;" class="cls-1" d="M210.67,169.17a3.31,3.31,0,0,1-.86-2.1V49.91h-15V167c0,6,0,18.38,12.38,18.38H229v-15H214.47A5.23,5.23,0,0,1,210.67,169.17Z"/><rect id="_Path_3" data-name="&lt;Path&gt;" class="cls-1" x="291.98" y="49.91" width="15" height="135.42"/><rect id="_Path_4" data-name="&lt;Path&gt;" class="cls-1" x="516.79" y="49.91" width="15" height="135.42"/><path id="_Compound_Path_" data-name="&lt;Compound Path&gt;" class="cls-1" d="M367.17,50.21H332V185.33h15v-58h20.18c17.32,0,30.67-4.58,39.68-13.61a38.11,38.11,0,0,0,11-25C417.89,88.4,417.31,50.21,367.17,50.21ZM347,65.21h20.16c35,0,35.71,22.66,35.72,23.55a23.24,23.24,0,0,1-6.63,14.4c-6.09,6.11-15.87,9.2-29.06,9.2H347Z"/><path id="_Path_5" data-name="&lt;Path&gt;" class="cls-1" d="M462.58,50.43c-20.39,0-35.18,12.9-35.18,30.66,0,16.68,1.53,27.71,31.72,43.38,23.64,12.27,23.64,17.85,23.64,30.07,0,9.22-8.3,15.67-20.18,15.67-19,0-20.15-13.08-20.18-15.7l0-2.46h-15v2.5c0,10.61,7.35,30.67,35.18,30.67,20.39,0,35.18-12.9,35.18-30.67,0-16.68-1.53-27.71-31.73-43.38C442.4,98.89,442.4,93.32,442.4,81.1c0-9.22,8.3-15.66,20.18-15.66,19,0,20.14,13.08,20.18,15.7l0,2.46h15V81.1C497.76,70.49,490.41,50.43,462.58,50.43Z"/><path id="_Path_6" data-name="&lt;Path&gt;" class="cls-1" d="M589,65.43c19,0,20.15,13.08,20.18,15.7l0,2.47h15V81.1c0-10.61-7.35-30.66-35.18-30.66-20.39,0-35.18,12.9-35.18,30.66,0,16.68,1.53,27.71,31.73,43.38,23.64,12.27,23.64,17.85,23.64,30.07,0,9.22-8.3,15.67-20.18,15.67-19,0-20.14-13.08-20.18-15.7l0-2.46h-15v2.5c0,10.61,7.35,30.67,35.18,30.67,20.39,0,35.18-12.9,35.18-30.67,0-16.68-1.53-27.71-31.72-43.38-23.64-12.27-23.64-17.85-23.64-30.07C568.82,71.87,577.12,65.43,589,65.43Z"/><g id="_Group_2" data-name="&lt;Group&gt;"><path id="_Path_7" data-name="&lt;Path&gt;" class="cls-1" d="M112,170.54a52.73,52.73,0,0,1-52.18-45.22H112v-15H59.77a52.72,52.72,0,0,1,83.78-34.71l11-11A68.11,68.11,0,0,0,44.24,110.32a67.24,67.24,0,0,0,0,15A68.11,68.11,0,0,0,154.52,171l-11-11A52.49,52.49,0,0,1,112,170.54Z"/><path id="_Path_8" data-name="&lt;Path&gt;" class="cls-2" d="M164.67,117.82a52.49,52.49,0,0,1-10.42,31.46.19.19,0,0,0,0,.25L165,160.23a.2.2,0,0,0,.3,0,68.07,68.07,0,0,0,0-84.79.2.2,0,0,0-.3,0L154.28,86.1a.19.19,0,0,0,0,.25A52.49,52.49,0,0,1,164.67,117.82Z"/></g></g></svg>