<svg id="Layer_2" data-name="Layer 2" xmlns="http://www.w3.org/2000/svg" viewBox="0 0 668 293"><defs><style>.cls-1,.cls-2{fill:#fff;}.cls-2,.cls-4{opacity:0.2;}.cls-3,.cls-4,.cls-5,.cls-6,.cls-7,.cls-8{fill:#016464;}.cls-3{opacity:0.25;}.cls-5{opacity:0.35;}.cls-6{opacity:0.3;}.cls-7{opacity:0.5;}.cls-8{opacity:0.4;}.cls-9{opacity:0.75;}.cls-10{fill:#e6e7e8;}</style></defs><title>Logo Ellipsis Earth Intelligence New</title><g id="_Group_" data-name="&lt;Group&gt;"><path id="_Path_" data-name="&lt;Path&gt;" class="cls-1" d="M259.45,169.17a3.31,3.31,0,0,1-.86-2.1V49.91h-15V167c0,6,0,18.38,12.38,18.38h21.78v-15H263.26A5.23,5.23,0,0,1,259.45,169.17Z"/><path id="_Path_2" data-name="&lt;Path&gt;" class="cls-1" d="M210.67,169.17a3.31,3.31,0,0,1-.86-2.1V49.91h-15V167c0,6,0,18.38,12.38,18.38H229v-15H214.47A5.23,5.23,0,0,1,210.67,169.17Z"/><rect id="_Path_3" data-name="&lt;Path&gt;" class="cls-1" x="291.98" y="49.91" width="15" height="135.42"/><rect id="_Path_4" data-name="&lt;Path&gt;" class="cls-1" x="516.79" y="49.91" width="15" height="135.42"/><path id="_Compound_Path_" data-name="&lt;Compound Path&gt;" class="cls-1" d="M367.17,50.21H332V185.33h15v-58h20.18c17.32,0,30.67-4.58,39.68-13.61a38.11,38.11,0,0,0,11-25C417.89,88.4,417.31,50.21,367.17,50.21ZM347,65.21h20.16c35,0,35.71,22.66,35.72,23.55a23.24,23.24,0,0,1-6.63,14.4c-6.09,6.11-15.87,9.2-29.06,9.2H347Z"/><path id="_Path_5" data-name="&lt;Path&gt;" class="cls-1" d="M462.58,50.43c-20.39,0-35.18,12.9-35.18,30.66,0,16.68,1.53,27.71,31.72,43.38,23.64,12.27,23.64,17.85,23.64,30.07,0,9.22-8.3,15.67-20.18,15.67-19,0-20.15-13.08-20.18-15.7l0-2.46h-15v2.5c0,10.61,7.35,30.67,35.18,30.67,20.39,0,35.18-12.9,35.18-30.67,0-16.68-1.53-27.71-31.73-43.38C442.4,98.89,442.4,93.32,442.4,81.1c0-9.22,8.3-15.66,20.18-15.66,19,0,20.14,13.08,20.18,15.7l0,2.46h15V81.1C497.76,70.49,490.41,50.43,462.58,50.43Z"/><path id="_Path_6" data-name="&lt;Path&gt;" class="cls-1" d="M589,65.43c19,0,20.15,13.08,20.18,15.7l0,2.47h15V81.1c0-10.61-7.35-30.66-35.18-30.66-20.39,0-35.18,12.9-35.18,30.66,0,16.68,1.53,27.71,31.73,43.38,23.64,12.27,23.64,17.85,23.64,30.07,0,9.22-8.3,15.67-20.18,15.67-19,0-20.14-13.08-20.18-15.7l0-2.46h-15v2.5c0,10.61,7.35,30.67,35.18,30.67,20.39,0,35.18-12.9,35.18-30.67,0-16.68-1.53-27.71-31.72-43.38-23.64-12.27-23.64-17.85-23.64-30.07C568.82,71.87,577.12,65.43,589,65.43Z"/><g id="_Group_2" data-name="&lt;Group&gt;"><path id="_Path_7" data-name="&lt;Path&gt;" class="cls-1" d="M112,170.54a52.73,52.73,0,0,1-52.18-45.22H112v-15H59.77a52.72,52.72,0,0,1,83.78-34.71l11-11A68.11,68.11,0,0,0,44.24,110.32a67.24,67.24,0,0,0,0,15A68.11,68.11,0,0,0,154.52,171l-11-11A52.49,52.49,0,0,1,112,170.54Z"/><path id="_Path_8" data-name="&lt;Path&gt;" class="cls-2" d="M164.67,117.82a52.49,52.49,0,0,1-10.42,31.46.19.19,0,0,0,0,.25L165,160.23a.2.2,0,0,0,.3,0,68.07,68.07,0,0,0,0-84.79.2.2,0,0,0-.3,0L154.28,86.1a.19.19,0,0,0,0,.25A52.49,52.49,0,0,1,164.67,117.82Z"/></g><polygon class="cls-1" points="68.74 21.89 52.77 37.87 53.86 38.96 49.93 42.89 45.36 38.34 40.48 43.21 40.48 46.36 43.47 49.34 40.36 52.45 39.27 51.36 23.3 67.34 26.19 70.23 42.16 54.25 41.07 53.16 44.18 50.05 48.58 54.45 53.47 49.56 53.47 46.41 50.64 43.59 54.56 39.67 54.56 39.67 55.66 40.76 71.63 24.79 68.74 21.89"/><rect class="cls-3" x="49.47" y="40.78" width="5.55" height="1" transform="translate(-13.88 49.03) rotate(-44.99)"/><rect id="_Rectangle_" data-name="&lt;Rectangle&gt;" class="cls-4" x="50.9" y="29.28" width="22.59" height="4.09" transform="translate(-3.93 53.16) rotate(-45)"/><polygon id="_Path_9" data-name="&lt;Path&gt;" class="cls-5" points="40.48 46.36 48.58 54.45 48.58 51.3 40.48 43.21 40.48 46.36"/><polygon id="_Path_10" data-name="&lt;Path&gt;" class="cls-6" points="53.47 46.41 53.47 49.56 48.58 54.45 48.58 51.3 53.47 46.41"/><polygon class="cls-3" points="50.26 43.27 50.28 43.24 45.36 38.34 40.48 43.21 48.58 51.3 53.47 46.41 50.28 43.24 50.26 43.27"/><g id="_Group_3" data-name="&lt;Group&gt;"><rect id="_Rectangle_2" data-name="&lt;Rectangle&gt;" class="cls-7" x="21.43" y="58.75" width="22.59" height="4.09" transform="translate(98.86 80.64) rotate(135)"/><rect class="cls-8" x="40.07" y="50.75" width="4.4" height="1" transform="translate(-23.86 44.9) rotate(-45)"/></g></g><g class="cls-9"><path class="cls-10" d="M129.62,228.92c-8.35,0-14.4,6.16-14.4,14.64s6.06,14.82,14.4,14.82a14,14,0,0,0,12.65-7.08l.07-.12-3.53-1.54-.06.09a10.33,10.33,0,0,1-9,4.74c-5.73,0-9.68-3.49-10.36-9.11h24.09v-.11a15.79,15.79,0,0,0,.06-1.69C143.55,234.8,138,228.92,129.62,228.92Zm0,3.91c5.54,0,9.31,3.44,9.88,9H119.44C120.18,236.18,124,232.83,129.62,232.83Z"/><path class="cls-10" d="M173,229.52v5.06a12.77,12.77,0,0,0-11-5.66c-8.18,0-14.34,6.32-14.34,14.71a14.88,14.88,0,0,0,4.22,10.6,14.15,14.15,0,0,0,10.12,4.16,12.71,12.71,0,0,0,11-5.72v5.12h4.09V229.52Zm0,14.22a10.5,10.5,0,0,1-10.73,10.73A10.83,10.83,0,1,1,173,243.74Z"/><path class="cls-10" d="M197.45,228.92c-4.14,0-7.11,2.33-8.63,6.76v-6.16h-4.15v28.27h4.15V247.1a23,23,0,0,1,1.84-9.7c1.48-3,3.74-4.51,6.74-4.51a9.78,9.78,0,0,1,3.73.77l.14.06.77-3.9-.08,0A11.07,11.07,0,0,0,197.45,228.92Z"/><polygon class="cls-10" points="213.59 218.36 209.56 218.36 209.56 229.52 204.46 229.52 204.46 233.07 209.56 233.07 209.56 257.79 213.59 257.79 213.59 233.07 220 233.07 220 229.52 213.59 229.52 213.59 218.36"/><path class="cls-10" d="M237.83,228.92c-3.54,0-7.78,1.61-9.59,5.2V213.74h-4.09v44h4.09V242.12c.12-6.77,4.85-9.18,9.23-9.18,4.66,0,7.79,3.45,7.79,8.57v16.26h4.09V241.34C249.36,233.79,244.83,228.92,237.83,228.92Z"/><path class="cls-10" d="M275.21,216.44a2.87,2.87,0,1,0,3.13,2.88A2.95,2.95,0,0,0,275.21,216.44Z"/><rect class="cls-10" x="273.17" y="229.52" width="4.09" height="28.27"/><path class="cls-10" d="M298.51,228.92c-3.54,0-7.78,1.61-9.59,5.2v-4.59h-4.09v28.27h4.09V242.12c.12-6.77,4.85-9.18,9.23-9.18,4.66,0,7.79,3.45,7.79,8.57v16.26H310V241.34C310,233.79,305.51,228.92,298.51,228.92Z"/><polygon class="cls-10" points="322.39 218.36 318.36 218.36 318.36 229.52 313.26 229.52 313.26 233.07 318.36 233.07 318.36 257.79 322.39 257.79 322.39 233.07 328.81 233.07 328.81 229.52 322.39 229.52 322.39 218.36"/><path class="cls-10" d="M344.66,228.92c-8.35,0-14.4,6.16-14.4,14.64s6.06,14.82,14.4,14.82a14,14,0,0,0,12.65-7.08l.07-.12-3.53-1.54-.06.09a10.33,10.33,0,0,1-9,4.74c-5.73,0-9.68-3.49-10.36-9.11h24.09v-.11a15.92,15.92,0,0,0,.06-1.69C358.59,234.8,353,228.92,344.66,228.92Zm0,3.91c5.54,0,9.31,3.44,9.88,9H334.49C335.22,236.18,339,232.83,344.66,232.83Z"/><rect class="cls-10" x="364.36" y="213.74" width="4.09" height="44.05"/><rect class="cls-10" x="375.98" y="213.74" width="4.09" height="44.05"/><path class="cls-10" d="M389.71,216.44a2.87,2.87,0,1,0,3.13,2.88A2.95,2.95,0,0,0,389.71,216.44Z"/><rect class="cls-10" x="387.66" y="229.52" width="4.09" height="28.27"/><path class="cls-10" d="M422.8,234.58a12.77,12.77,0,0,0-11-5.66c-8.18,0-14.34,6.32-14.34,14.71a14.88,14.88,0,0,0,4.22,10.6,14.15,14.15,0,0,0,10.12,4.16,12.77,12.77,0,0,0,11-5.66v1c0,9.66-3.56,14.15-11.21,14.15a10.26,10.26,0,0,1-8.77-4.92l-.06-.1-3.46,1.92.07.11a14.19,14.19,0,0,0,12.23,6.9c10.3,0,15.3-6,15.3-18.24v-24H422.8Zm0,9.16a10.5,10.5,0,0,1-10.73,10.73,10.83,10.83,0,1,1,10.73-10.73Z"/><path class="cls-10" d="M447.18,228.92c-8.35,0-14.4,6.16-14.4,14.64s6.06,14.82,14.4,14.82a14,14,0,0,0,12.65-7.08l.07-.12-3.53-1.54-.06.09a10.33,10.33,0,0,1-9,4.74c-5.73,0-9.68-3.49-10.36-9.11H461v-.11a15.92,15.92,0,0,0,.06-1.69C461.11,234.8,455.51,228.92,447.18,228.92Zm0,3.91c5.54,0,9.31,3.44,9.88,9H437C437.74,236.18,441.53,232.83,447.18,232.83Z"/><path class="cls-10" d="M480.5,228.92c-3.54,0-7.78,1.61-9.59,5.2v-4.59h-4.09v28.27h4.09V242.12c.12-6.77,4.85-9.18,9.23-9.18,4.66,0,7.79,3.45,7.79,8.57v16.26H492V241.34C492,233.79,487.5,228.92,480.5,228.92Z"/><path class="cls-10" d="M512.45,232.83a11.07,11.07,0,0,1,7.48,2.79l.09.08,2.57-2.83-.09-.08a14.85,14.85,0,0,0-10.16-3.87,15.23,15.23,0,0,0-10.49,4,15.1,15.1,0,0,0,0,21.42,15.23,15.23,0,0,0,10.49,4,14.61,14.61,0,0,0,10.17-3.87l.09-.09L520,251.61l-.09.08a11.05,11.05,0,0,1-7.48,2.73c-6.36,0-11-4.54-11-10.79S506.09,232.83,512.45,232.83Z"/><path class="cls-10" d="M539,228.92c-8.35,0-14.4,6.16-14.4,14.64s6.06,14.82,14.4,14.82a14,14,0,0,0,12.65-7.08l.07-.12-3.53-1.54-.06.09a10.33,10.33,0,0,1-9,4.74c-5.73,0-9.68-3.49-10.36-9.11h24.09v-.11a15.79,15.79,0,0,0,.06-1.69C553,234.8,547.37,228.92,539,228.92Zm0,3.91c5.54,0,9.31,3.44,9.88,9H528.86C529.59,236.18,533.39,232.83,539,232.83Z"/></g></svg>