<svg viewBox="0 0 668 235.9" xmlns="http://www.w3.org/2000/svg"><g fill="#fff"><path d="m259.5 169.2c-.5-.6-.8-1.3-.9-2.1v-117.2h-15v117.1c0 6 0 18.4 12.4 18.4h21.8v-15h-14.5c-1.4.1-2.8-.3-3.8-1.2z"/><path d="m210.7 169.2c-.5-.6-.8-1.3-.9-2.1v-117.2h-15v117.1c0 6 0 18.4 12.4 18.4h21.8v-15h-14.5c-1.4.1-2.8-.3-3.8-1.2z"/><path d="m292 49.9h15v135.4h-15z"/><path d="m516.8 49.9h15v135.4h-15z"/><path d="m367.2 50.2h-35.2v135.1h15v-58h20.2c17.3 0 30.7-4.6 39.7-13.6 6.6-6.7 10.5-15.6 11-25 0-.3-.6-38.5-50.7-38.5zm-20.2 15h20.2c35 0 35.7 22.7 35.7 23.5-.5 5.4-2.8 10.5-6.6 14.4-6.1 6.1-15.9 9.2-29.1 9.2h-20.2z"/><path d="m462.6 50.4c-20.4 0-35.2 12.9-35.2 30.7 0 16.7 1.5 27.7 31.7 43.4 23.6 12.3 23.6 17.9 23.6 30.1 0 9.2-8.3 15.7-20.2 15.7-19 0-20.1-13.1-20.2-15.7v-2.5h-15v2.5c0 10.6 7.4 30.7 35.2 30.7 20.4 0 35.2-12.9 35.2-30.7 0-16.7-1.5-27.7-31.7-43.4-23.6-12.3-23.6-17.8-23.6-30.1 0-9.2 8.3-15.7 20.2-15.7 19 0 20.1 13.1 20.2 15.7v2.5h15v-2.5c0-10.6-7.4-30.7-35.2-30.7z"/><path d="m589 65.4c19 0 20.2 13.1 20.2 15.7v2.5h15v-2.5c0-10.6-7.3-30.7-35.2-30.7-20.4 0-35.2 12.9-35.2 30.7 0 16.7 1.5 27.7 31.7 43.4 23.6 12.3 23.6 17.9 23.6 30.1 0 9.2-8.3 15.7-20.2 15.7-19 0-20.1-13.1-20.2-15.7v-2.5h-15v2.5c0 10.6 7.3 30.7 35.2 30.7 20.4 0 35.2-12.9 35.2-30.7 0-16.7-1.5-27.7-31.7-43.4-23.6-12.3-23.6-17.8-23.6-30.1 0-9.2 8.3-15.7 20.2-15.7z"/><path d="m112 170.5c-26.2 0-48.4-19.3-52.2-45.2h52.2v-15h-52.2c4.1-28.8 30.9-48.8 59.7-44.7 8.7 1.3 17 4.7 24.1 10l11-11c-29.3-23.5-72.2-18.8-95.7 10.5-8.1 10.1-13.2 22.3-14.6 35.2-.6 5-.6 10 0 15 4.1 37.4 37.8 64.4 75.2 60.2 12.8-1.4 25-6.5 35.1-14.5l-11-11c-9.2 6.8-20.2 10.5-31.6 10.5z"/><path d="m164.7 117.8c0 11.3-3.6 22.4-10.4 31.5-.1.1-.1.2 0 .2l10.8 10.7c.1.1.2.1.3 0 19.8-24.8 19.8-60 0-84.8-.1-.1-.2-.1-.3 0l-10.7 10.7c-.1.1-.1.2 0 .2 6.7 9.1 10.3 20.2 10.3 31.5z" opacity=".2"/><path d="m68.7 21.9-15.9 16 1.1 1.1-4 3.9-4.5-4.6-4.9 4.9v3.2l3 2.9-3.1 3.2-1.1-1.1-16 15.9 2.9 2.9 16-16-1.1-1 3.1-3.2 4.4 4.5 4.9-4.9v-3.2l-2.9-2.8 4-3.9 1.1 1.1 15.9-16z"/></g><path d="m49.5 40.8h5.5v1h-5.5z" opacity=".25" transform="matrix(.7072 -.707 .707 .7072 -13.8918 49.0303)"/><path d="m50.9 29.3h22.6v4.1h-22.6z" opacity=".2" transform="matrix(.7071 -.7071 .7071 .7071 -3.9372 53.1579)"/><path d="m40.5 46.4 8.1 8.1v-3.2l-8.1-8.1z" opacity=".35"/><path d="m53.5 46.4v3.2l-4.9 4.9v-3.2z" opacity=".3"/><path d="m50.3 43.3v-.1l-4.9-4.9-4.9 4.9 8.1 8.1 4.9-4.9-3.2-3.2z" opacity=".25"/><path d="m21.4 58.7h22.6v4.1h-22.6z" opacity=".5" transform="matrix(.7071 -.7071 .7071 .7071 -33.3993 40.95)"/><path d="m40.1 50.7h4.4v1h-4.4z" opacity=".4" transform="matrix(.7071 -.7071 .7071 .7071 -23.8589 44.8992)"/></svg>